%TF.GenerationSoftware,KiCad,Pcbnew,9.0.6*%
%TF.CreationDate,2026-04-22T15:38:56+02:00*%
%TF.ProjectId,SmartClock,536d6172-7443-46c6-9f63-6b2e6b696361,rev?*%
%TF.SameCoordinates,Original*%
%TF.FileFunction,Legend,Top*%
%TF.FilePolarity,Positive*%
%FSLAX46Y46*%
G04 Gerber Fmt 4.6, Leading zero omitted, Abs format (unit mm)*
G04 Created by KiCad (PCBNEW 9.0.6) date 2026-04-22 15:38:56*
%MOMM*%
%LPD*%
G01*
G04 APERTURE LIST*
%ADD10C,0.150000*%
%ADD11C,0.127000*%
%ADD12C,0.200000*%
%ADD13C,0.120000*%
G04 APERTURE END LIST*
D10*
X109998809Y-34484819D02*
X110189285Y-34484819D01*
X110189285Y-34484819D02*
X110284523Y-34532438D01*
X110284523Y-34532438D02*
X110379761Y-34627676D01*
X110379761Y-34627676D02*
X110427380Y-34818152D01*
X110427380Y-34818152D02*
X110427380Y-35151485D01*
X110427380Y-35151485D02*
X110379761Y-35341961D01*
X110379761Y-35341961D02*
X110284523Y-35437200D01*
X110284523Y-35437200D02*
X110189285Y-35484819D01*
X110189285Y-35484819D02*
X109998809Y-35484819D01*
X109998809Y-35484819D02*
X109903571Y-35437200D01*
X109903571Y-35437200D02*
X109808333Y-35341961D01*
X109808333Y-35341961D02*
X109760714Y-35151485D01*
X109760714Y-35151485D02*
X109760714Y-34818152D01*
X109760714Y-34818152D02*
X109808333Y-34627676D01*
X109808333Y-34627676D02*
X109903571Y-34532438D01*
X109903571Y-34532438D02*
X109998809Y-34484819D01*
X111332142Y-35484819D02*
X110855952Y-35484819D01*
X110855952Y-35484819D02*
X110855952Y-34484819D01*
X112189285Y-35484819D02*
X111617857Y-35484819D01*
X111903571Y-35484819D02*
X111903571Y-34484819D01*
X111903571Y-34484819D02*
X111808333Y-34627676D01*
X111808333Y-34627676D02*
X111713095Y-34722914D01*
X111713095Y-34722914D02*
X111617857Y-34770533D01*
D11*
%TO.C,OL1*%
X107500000Y-36000000D02*
X133500000Y-36000000D01*
X107500000Y-62000000D02*
X107500000Y-36000000D01*
X113500000Y-60000000D02*
X113500000Y-62000000D01*
X113500000Y-62000000D02*
X107500000Y-62000000D01*
X127500000Y-60000000D02*
X113500000Y-60000000D01*
X127500000Y-62000000D02*
X127500000Y-60000000D01*
X133500000Y-36000000D02*
X133500000Y-62000000D01*
X133500000Y-62000000D02*
X127500000Y-62000000D01*
D12*
X116600000Y-35500000D02*
G75*
G02*
X116400000Y-35500000I-100000J0D01*
G01*
X116400000Y-35500000D02*
G75*
G02*
X116600000Y-35500000I100000J0D01*
G01*
D13*
%TO.C,SW1*%
X138515000Y-42015000D02*
X152485000Y-42015000D01*
X138515000Y-55985000D02*
X138515000Y-42015000D01*
X152485000Y-42015000D02*
X152485000Y-55985000D01*
X152485000Y-55985000D02*
X138515000Y-55985000D01*
%TD*%
M02*
