%TF.GenerationSoftware,KiCad,Pcbnew,9.0.6*%
%TF.CreationDate,2026-04-22T15:38:56+02:00*%
%TF.ProjectId,SmartClock,536d6172-7443-46c6-9f63-6b2e6b696361,rev?*%
%TF.SameCoordinates,Original*%
%TF.FileFunction,Soldermask,Bot*%
%TF.FilePolarity,Negative*%
%FSLAX46Y46*%
G04 Gerber Fmt 4.6, Leading zero omitted, Abs format (unit mm)*
G04 Created by KiCad (PCBNEW 9.0.6) date 2026-04-22 15:38:56*
%MOMM*%
%LPD*%
G01*
G04 APERTURE LIST*
G04 Aperture macros list*
%AMRoundRect*
0 Rectangle with rounded corners*
0 $1 Rounding radius*
0 $2 $3 $4 $5 $6 $7 $8 $9 X,Y pos of 4 corners*
0 Add a 4 corners polygon primitive as box body*
4,1,4,$2,$3,$4,$5,$6,$7,$8,$9,$2,$3,0*
0 Add four circle primitives for the rounded corners*
1,1,$1+$1,$2,$3*
1,1,$1+$1,$4,$5*
1,1,$1+$1,$6,$7*
1,1,$1+$1,$8,$9*
0 Add four rect primitives between the rounded corners*
20,1,$1+$1,$2,$3,$4,$5,0*
20,1,$1+$1,$4,$5,$6,$7,0*
20,1,$1+$1,$6,$7,$8,$9,0*
20,1,$1+$1,$8,$9,$2,$3,0*%
G04 Aperture macros list end*
%ADD10RoundRect,0.102000X-0.754000X-0.754000X0.754000X-0.754000X0.754000X0.754000X-0.754000X0.754000X0*%
%ADD11C,1.712000*%
%ADD12C,3.204000*%
%ADD13C,1.700000*%
%ADD14C,4.000000*%
%ADD15C,2.200000*%
%ADD16C,1.524000*%
%ADD17RoundRect,0.152400X-0.609600X1.063600X-0.609600X-1.063600X0.609600X-1.063600X0.609600X1.063600X0*%
%ADD18RoundRect,0.152400X0.609600X-1.063600X0.609600X1.063600X-0.609600X1.063600X-0.609600X-1.063600X0*%
G04 APERTURE END LIST*
D10*
%TO.C,OL1*%
X116690000Y-37500000D03*
D11*
X119230000Y-37500000D03*
X121770000Y-37500000D03*
X124310000Y-37500000D03*
D12*
X109500000Y-38000000D03*
X131500000Y-38000000D03*
X131500000Y-60000000D03*
X109500000Y-60000000D03*
%TD*%
D13*
%TO.C,SW1*%
X140420000Y-49000000D03*
D14*
X145500000Y-49000000D03*
D13*
X150580000Y-49000000D03*
D15*
X148040000Y-43920000D03*
X141690000Y-46460000D03*
%TD*%
D16*
%TO.C,U2*%
X155463962Y-56605761D03*
D17*
X155463962Y-57440761D03*
D16*
X152923962Y-56605761D03*
D17*
X152923962Y-57440761D03*
D16*
X150383962Y-56605761D03*
D17*
X150383962Y-57440761D03*
D16*
X147843962Y-56605761D03*
D17*
X147843962Y-57440761D03*
D16*
X145303962Y-56605761D03*
D17*
X145303962Y-57440761D03*
D16*
X142763962Y-56605761D03*
D17*
X142763962Y-57440761D03*
D16*
X140223962Y-56605761D03*
D17*
X140223962Y-57440761D03*
D18*
X140223962Y-40530761D03*
D16*
X140223962Y-41365761D03*
D18*
X142763962Y-40530761D03*
D16*
X142763962Y-41365761D03*
D18*
X145303962Y-40530761D03*
D16*
X145303962Y-41365761D03*
D18*
X147843962Y-40530761D03*
D16*
X147843962Y-41365761D03*
D18*
X150383962Y-40530761D03*
D16*
X150383962Y-41365761D03*
D18*
X152923962Y-40530761D03*
D16*
X152923962Y-41365761D03*
D18*
X155463962Y-40530761D03*
D16*
X155463962Y-41365761D03*
%TD*%
M02*
