%TF.GenerationSoftware,KiCad,Pcbnew,9.0.6*%
%TF.CreationDate,2026-04-22T15:38:56+02:00*%
%TF.ProjectId,SmartClock,536d6172-7443-46c6-9f63-6b2e6b696361,rev?*%
%TF.SameCoordinates,Original*%
%TF.FileFunction,Copper,L2,Bot*%
%TF.FilePolarity,Positive*%
%FSLAX46Y46*%
G04 Gerber Fmt 4.6, Leading zero omitted, Abs format (unit mm)*
G04 Created by KiCad (PCBNEW 9.0.6) date 2026-04-22 15:38:56*
%MOMM*%
%LPD*%
G01*
G04 APERTURE LIST*
G04 Aperture macros list*
%AMRoundRect*
0 Rectangle with rounded corners*
0 $1 Rounding radius*
0 $2 $3 $4 $5 $6 $7 $8 $9 X,Y pos of 4 corners*
0 Add a 4 corners polygon primitive as box body*
4,1,4,$2,$3,$4,$5,$6,$7,$8,$9,$2,$3,0*
0 Add four circle primitives for the rounded corners*
1,1,$1+$1,$2,$3*
1,1,$1+$1,$4,$5*
1,1,$1+$1,$6,$7*
1,1,$1+$1,$8,$9*
0 Add four rect primitives between the rounded corners*
20,1,$1+$1,$2,$3,$4,$5,0*
20,1,$1+$1,$4,$5,$6,$7,0*
20,1,$1+$1,$6,$7,$8,$9,0*
20,1,$1+$1,$8,$9,$2,$3,0*%
G04 Aperture macros list end*
%TA.AperFunction,ComponentPad*%
%ADD10R,1.508000X1.508000*%
%TD*%
%TA.AperFunction,ComponentPad*%
%ADD11C,1.508000*%
%TD*%
%TA.AperFunction,ComponentPad*%
%ADD12C,3.000000*%
%TD*%
%TA.AperFunction,ComponentPad*%
%ADD13C,2.200000*%
%TD*%
%TA.AperFunction,ComponentPad*%
%ADD14C,1.524000*%
%TD*%
%TA.AperFunction,SMDPad,CuDef*%
%ADD15RoundRect,0.152400X-0.609600X1.063600X-0.609600X-1.063600X0.609600X-1.063600X0.609600X1.063600X0*%
%TD*%
%TA.AperFunction,SMDPad,CuDef*%
%ADD16RoundRect,0.152400X0.609600X-1.063600X0.609600X1.063600X-0.609600X1.063600X-0.609600X-1.063600X0*%
%TD*%
%TA.AperFunction,Conductor*%
%ADD17C,0.200000*%
%TD*%
G04 APERTURE END LIST*
D10*
%TO.P,OL1,1,SDA*%
%TO.N,Net-(OL1-SDA)*%
X116690000Y-37500000D03*
D11*
%TO.P,OL1,2,SCL*%
%TO.N,Net-(OL1-SCL)*%
X119230000Y-37500000D03*
%TO.P,OL1,3,VCC*%
%TO.N,Net-(OL1-VCC)*%
X121770000Y-37500000D03*
%TO.P,OL1,4,GND*%
%TO.N,GND*%
X124310000Y-37500000D03*
D12*
%TO.P,OL1,S1*%
%TO.N,N/C*%
X109500000Y-38000000D03*
%TO.P,OL1,S2*%
X131500000Y-38000000D03*
%TO.P,OL1,S3*%
X131500000Y-60000000D03*
%TO.P,OL1,S4*%
X109500000Y-60000000D03*
%TD*%
D13*
%TO.P,SW1,1,1*%
%TO.N,Net-(U2-GPIO3_A1_D1)*%
X148040000Y-43920000D03*
%TO.P,SW1,2,2*%
%TO.N,GND*%
X141690000Y-46460000D03*
%TD*%
D14*
%TO.P,U2,1,GPIO2_A0_D0*%
%TO.N,unconnected-(U2-GPIO2_A0_D0-Pad1)*%
X155463962Y-56605761D03*
D15*
X155463962Y-57440761D03*
D14*
%TO.P,U2,2,GPIO3_A1_D1*%
%TO.N,Net-(U2-GPIO3_A1_D1)*%
X152923962Y-56605761D03*
D15*
X152923962Y-57440761D03*
D14*
%TO.P,U2,3,GPIO4_A2_D2*%
%TO.N,unconnected-(U2-GPIO4_A2_D2-Pad3)*%
X150383962Y-56605761D03*
D15*
X150383962Y-57440761D03*
D14*
%TO.P,U2,4,GPIO5_A3_D3*%
%TO.N,unconnected-(U2-GPIO5_A3_D3-Pad4)*%
X147843962Y-56605761D03*
D15*
X147843962Y-57440761D03*
D14*
%TO.P,U2,5,GPIO6_D4_SDA*%
%TO.N,Net-(OL1-SDA)*%
X145303962Y-56605761D03*
D15*
X145303962Y-57440761D03*
D14*
%TO.P,U2,6,GPIO7_D5_SCL*%
%TO.N,Net-(OL1-SCL)*%
X142763962Y-56605761D03*
D15*
X142763962Y-57440761D03*
D14*
%TO.P,U2,7,GPIO21_D6_TX*%
%TO.N,unconnected-(U2-GPIO21_D6_TX-Pad7)*%
X140223962Y-56605761D03*
D15*
X140223962Y-57440761D03*
D16*
%TO.P,U2,8,GPIO20_D7_RX*%
%TO.N,unconnected-(U2-GPIO20_D7_RX-Pad8)*%
X140223962Y-40530761D03*
D14*
X140223962Y-41365761D03*
D16*
%TO.P,U2,9,GPIO8_D8_SCK*%
%TO.N,unconnected-(U2-GPIO8_D8_SCK-Pad9)*%
X142763962Y-40530761D03*
D14*
X142763962Y-41365761D03*
D16*
%TO.P,U2,10,GPIO9_D9_MISO*%
%TO.N,unconnected-(U2-GPIO9_D9_MISO-Pad10)*%
X145303962Y-40530761D03*
D14*
X145303962Y-41365761D03*
D16*
%TO.P,U2,11,GPIO10_D10_MOSI*%
%TO.N,unconnected-(U2-GPIO10_D10_MOSI-Pad11)*%
X147843962Y-40530761D03*
D14*
X147843962Y-41365761D03*
D16*
%TO.P,U2,12,3V3*%
%TO.N,Net-(OL1-VCC)*%
X150383962Y-40530761D03*
D14*
X150383962Y-41365761D03*
D16*
%TO.P,U2,13,GND*%
%TO.N,GND*%
X152923962Y-40530761D03*
D14*
X152923962Y-41365761D03*
D16*
%TO.P,U2,14,VBUS*%
%TO.N,unconnected-(U2-VBUS-Pad14)*%
X155463962Y-40530761D03*
D14*
X155463962Y-41365761D03*
%TD*%
D17*
%TO.N,Net-(U2-GPIO3_A1_D1)*%
X152338176Y-44938176D02*
G75*
G02*
X152923981Y-46352389I-1414176J-1414224D01*
G01*
X151905787Y-44505787D02*
G75*
G03*
X150491573Y-43920019I-1414187J-1414213D01*
G01*
X151905787Y-44505787D02*
X152338176Y-44938176D01*
X148040000Y-43920000D02*
X150491573Y-43920000D01*
X152923962Y-46352389D02*
X152923962Y-56605761D01*
%TD*%
M02*
